<svg xmlns="http://www.w3.org/2000/svg" viewBox="0 0 200 200"><defs><radialGradient id="fg" cx="50%" cy="50%" r="50%"><stop offset="0%" stop-color="#9a5aca"/><stop offset="70%" stop-color="#6a2a9a"/><stop offset="100%" stop-color="#3a1070"/></radialGradient></defs><circle cx="100" cy="100" r="88" fill="none" stroke="#6a2a9a" stroke-width="0.6" opacity="0.4"/><g transform="translate(100,100)"><path d="M0,-60 C-25,-50 -35,-25 -20,0 C-10,15 -5,25 0,35 C5,25 10,15 20,0 C35,-25 25,-50 0,-60 Z" fill="url(#fg)" opacity="0.85"/><path d="M0,-58 L0,30" stroke="#3a1070" stroke-width="0.5" opacity="0.5"/><path d="M-15,-40 Q-25,-30 -18,-15" fill="none" stroke="#3a1070" stroke-width="0.4" opacity="0.4"/><path d="M15,-40 Q25,-30 18,-15" fill="none" stroke="#3a1070" stroke-width="0.4" opacity="0.4"/><circle cx="0" cy="40" r="3" fill="#b8881a"/><circle cx="-8" cy="45" r="2" fill="#b8881a" opacity="0.7"/><circle cx="8" cy="45" r="2" fill="#b8881a" opacity="0.7"/></g><text x="100" y="180" text-anchor="middle" font-family="Playfair Display" font-style="italic" font-size="11" fill="#6a2a9a">folium · twentieth ink</text></svg>